# xmcd
#
# Track frame offsets:
# 150
# 14900
# 26265
# 38565
# 48524
# 59713
# 68676
# 83308
# 93295
# 105399
# 115039
# 125588
#
# Disc length: 1870 seconds
#
#
# Revision: 0
# Processed by: cddbd v1.5PL3 Copyright (c) Steve Scherf et al.
# Submitted via: FreeRIP 2.60 
#
DISCID=90074c0c
DTITLE=The Thrifts - Fretwork
DYEAR=1900
DGENRE=Country
TTITLE0=Shuckin' The Corn
TTITLE1=Eight More Miles to Little Lisa Jane
TTITLE2=Earl's Breakdown
TTITLE3=Black Diamond
TTITLE4=Bully of the town
TTITLE5=Dear Old Dixie
TTITLE6=Foggy Mountain Breakdown
TTITLE7=San Juan Hill
TTITLE8=Remington Ride
TTITLE9=Blackberry blossom
TTITLE10=Flint Hill Special
TTITLE11=Under the Double Eagle
EXTD=
EXTT0=
EXTT1=
EXTT2=
EXTT3=
EXTT4=
EXTT5=
EXTT6=
EXTT7=
EXTT8=
EXTT9=
EXTT10=
EXTT11=
PLAYORDER=
